<mxfile host="app.diagrams.net" modified="2020-08-04T06:49:57.889Z" agent="5.0 (Windows)" etag="hUTdU8f-a5hpqC4etdH-" version="13.5.9" type="github">
  <diagram id="XMbbLfNYFDRXuA-zbz-r" name="Page-1">
    <mxGraphModel dx="1894" dy="769" grid="1" gridSize="10" guides="1" tooltips="1" connect="1" arrows="1" fold="1" page="1" pageScale="1" pageWidth="827" pageHeight="1169" math="0" shadow="0">
      <root>
        <mxCell id="0" />
        <mxCell id="1" parent="0" />
        <mxCell id="ZZ8Sq0GbdoKP23Bn9hQ8-3" value="&lt;h1&gt;Butterblume Fail Convincer&lt;/h1&gt;&lt;p&gt;How to argument to convince someone that he has messed up the project.&lt;br&gt;&lt;/p&gt;" style="text;html=1;strokeColor=none;fillColor=none;spacing=5;spacingTop=-20;whiteSpace=wrap;overflow=hidden;rounded=0;" parent="1" vertex="1">
          <mxGeometry x="9" y="10" width="551" height="80" as="geometry" />
        </mxCell>
        <mxCell id="vQv6NK-90WROetTzSbnZ-25" value="No" style="edgeStyle=orthogonalEdgeStyle;curved=0;rounded=1;sketch=0;orthogonalLoop=1;jettySize=auto;html=1;exitX=0;exitY=0.5;exitDx=0;exitDy=0;entryX=0.5;entryY=0;entryDx=0;entryDy=0;" parent="1" source="vQv6NK-90WROetTzSbnZ-15" target="vQv6NK-90WROetTzSbnZ-16" edge="1">
          <mxGeometry relative="1" as="geometry" />
        </mxCell>
        <mxCell id="vQv6NK-90WROetTzSbnZ-15" value="Project Butterblume failed?" style="rounded=1;whiteSpace=wrap;html=1;sketch=0;fillColor=#fff2cc;strokeColor=#d6b656;" parent="1" vertex="1">
          <mxGeometry x="210" y="110" width="120" height="60" as="geometry" />
        </mxCell>
        <mxCell id="vQv6NK-90WROetTzSbnZ-26" value="No" style="edgeStyle=orthogonalEdgeStyle;curved=0;rounded=1;sketch=0;orthogonalLoop=1;jettySize=auto;html=1;exitX=0.5;exitY=1;exitDx=0;exitDy=0;entryX=0.25;entryY=0;entryDx=0;entryDy=0;" parent="1" source="vQv6NK-90WROetTzSbnZ-16" target="vQv6NK-90WROetTzSbnZ-20" edge="1">
          <mxGeometry relative="1" as="geometry" />
        </mxCell>
        <mxCell id="vQv6NK-90WROetTzSbnZ-16" value="SIEM on external market failed?" style="rounded=1;whiteSpace=wrap;html=1;sketch=0;fillColor=#fff2cc;strokeColor=#d6b656;" parent="1" vertex="1">
          <mxGeometry x="50" y="200" width="120" height="60" as="geometry" />
        </mxCell>
        <mxCell id="vQv6NK-90WROetTzSbnZ-29" value="No" style="edgeStyle=orthogonalEdgeStyle;curved=0;rounded=1;sketch=0;orthogonalLoop=1;jettySize=auto;html=1;exitX=0.5;exitY=0;exitDx=0;exitDy=0;" parent="1" source="vQv6NK-90WROetTzSbnZ-17" target="vQv6NK-90WROetTzSbnZ-22" edge="1">
          <mxGeometry relative="1" as="geometry" />
        </mxCell>
        <mxCell id="vQv6NK-90WROetTzSbnZ-17" value="Did u realize the tension between CI and ISY-SEC?" style="rounded=1;whiteSpace=wrap;html=1;sketch=0;fillColor=#fff2cc;strokeColor=#d6b656;" parent="1" vertex="1">
          <mxGeometry x="420" y="340" width="120" height="60" as="geometry" />
        </mxCell>
        <mxCell id="vQv6NK-90WROetTzSbnZ-18" value="Why no acknowledgement of faults? No communication?" style="ellipse;whiteSpace=wrap;html=1;aspect=fixed;rounded=0;sketch=0;fillColor=#647687;strokeColor=#314354;fontColor=#ffffff;" parent="1" vertex="1">
          <mxGeometry x="240" y="230" width="110" height="110" as="geometry" />
        </mxCell>
        <mxCell id="vQv6NK-90WROetTzSbnZ-28" value="No" style="edgeStyle=orthogonalEdgeStyle;curved=0;rounded=1;sketch=0;orthogonalLoop=1;jettySize=auto;html=1;exitX=1;exitY=0.5;exitDx=0;exitDy=0;entryX=0.5;entryY=1;entryDx=0;entryDy=0;" parent="1" source="vQv6NK-90WROetTzSbnZ-19" target="vQv6NK-90WROetTzSbnZ-17" edge="1">
          <mxGeometry relative="1" as="geometry" />
        </mxCell>
        <mxCell id="vQv6NK-90WROetTzSbnZ-19" value="Should SIEM participate in vSOC topic?" style="rounded=1;whiteSpace=wrap;html=1;sketch=0;fillColor=#fff2cc;strokeColor=#d6b656;" parent="1" vertex="1">
          <mxGeometry x="235" y="390" width="120" height="60" as="geometry" />
        </mxCell>
        <mxCell id="vQv6NK-90WROetTzSbnZ-27" value="No" style="edgeStyle=orthogonalEdgeStyle;curved=0;rounded=1;sketch=0;orthogonalLoop=1;jettySize=auto;html=1;exitX=0.25;exitY=1;exitDx=0;exitDy=0;entryX=0;entryY=0.5;entryDx=0;entryDy=0;" parent="1" source="vQv6NK-90WROetTzSbnZ-20" target="vQv6NK-90WROetTzSbnZ-19" edge="1">
          <mxGeometry relative="1" as="geometry" />
        </mxCell>
        <mxCell id="vQv6NK-90WROetTzSbnZ-20" value="Were the CI-Groups&amp;nbsp; just the marketing machine?" style="rounded=1;whiteSpace=wrap;html=1;sketch=0;fillColor=#fff2cc;strokeColor=#d6b656;" parent="1" vertex="1">
          <mxGeometry x="80" y="320" width="120" height="60" as="geometry" />
        </mxCell>
        <mxCell id="vQv6NK-90WROetTzSbnZ-21" value="&lt;div&gt;It&#39;s about to go down because:&lt;/div&gt;&lt;div&gt;&lt;ul&gt;&lt;li&gt;you&#39;re only focussed on personal success&lt;/li&gt;&lt;li&gt;Sales and politics is pushing us in wrong direction&lt;br&gt;&lt;/li&gt;&lt;li&gt;you don&#39;t support your employees&lt;/li&gt;&lt;li&gt;you prefer having good relation to CH for playing cards&lt;br&gt;&lt;/li&gt;&lt;/ul&gt;&lt;/div&gt;" style="text;html=1;strokeColor=#d79b00;fillColor=#ffe6cc;align=left;verticalAlign=middle;whiteSpace=wrap;rounded=0;sketch=0;" parent="1" vertex="1">
          <mxGeometry x="210" y="560" width="340" height="100" as="geometry" />
        </mxCell>
        <mxCell id="vQv6NK-90WROetTzSbnZ-30" value="Yes" style="edgeStyle=orthogonalEdgeStyle;curved=0;rounded=1;sketch=0;orthogonalLoop=1;jettySize=auto;html=1;exitX=0.5;exitY=0;exitDx=0;exitDy=0;entryX=0.5;entryY=1;entryDx=0;entryDy=0;" parent="1" source="vQv6NK-90WROetTzSbnZ-22" target="vQv6NK-90WROetTzSbnZ-23" edge="1">
          <mxGeometry relative="1" as="geometry" />
        </mxCell>
        <mxCell id="vQv6NK-90WROetTzSbnZ-22" value="Does BB bring value to overall &#39;Bosch Security&#39;? Or was it a step back?" style="rounded=1;whiteSpace=wrap;html=1;sketch=0;fillColor=#fff2cc;strokeColor=#d6b656;" parent="1" vertex="1">
          <mxGeometry x="405" y="230" width="150" height="60" as="geometry" />
        </mxCell>
        <mxCell id="vQv6NK-90WROetTzSbnZ-44" style="edgeStyle=orthogonalEdgeStyle;curved=0;rounded=1;sketch=0;orthogonalLoop=1;jettySize=auto;html=1;exitX=0.5;exitY=0;exitDx=0;exitDy=0;entryX=0.5;entryY=0;entryDx=0;entryDy=0;" parent="1" source="vQv6NK-90WROetTzSbnZ-23" target="vQv6NK-90WROetTzSbnZ-39" edge="1">
          <mxGeometry relative="1" as="geometry" />
        </mxCell>
        <mxCell id="vQv6NK-90WROetTzSbnZ-23" value="Why is SIEM still with ETAS? Benefits?" style="rounded=1;whiteSpace=wrap;html=1;sketch=0;fillColor=#fff2cc;strokeColor=#d6b656;" parent="1" vertex="1">
          <mxGeometry x="418" y="140" width="120" height="60" as="geometry" />
        </mxCell>
        <mxCell id="vQv6NK-90WROetTzSbnZ-32" value="Yes" style="endArrow=classic;html=1;exitX=1;exitY=0.5;exitDx=0;exitDy=0;entryX=0;entryY=0;entryDx=0;entryDy=0;" parent="1" source="vQv6NK-90WROetTzSbnZ-16" target="vQv6NK-90WROetTzSbnZ-18" edge="1">
          <mxGeometry width="50" height="50" relative="1" as="geometry">
            <mxPoint x="120" y="520" as="sourcePoint" />
            <mxPoint x="200" y="500" as="targetPoint" />
          </mxGeometry>
        </mxCell>
        <mxCell id="vQv6NK-90WROetTzSbnZ-33" value="Yes" style="endArrow=classic;html=1;exitX=0.5;exitY=1;exitDx=0;exitDy=0;entryX=0.5;entryY=0;entryDx=0;entryDy=0;" parent="1" source="vQv6NK-90WROetTzSbnZ-15" target="vQv6NK-90WROetTzSbnZ-18" edge="1">
          <mxGeometry width="50" height="50" relative="1" as="geometry">
            <mxPoint x="170" y="230" as="sourcePoint" />
            <mxPoint x="256.1091270347397" y="246.10912703473969" as="targetPoint" />
          </mxGeometry>
        </mxCell>
        <mxCell id="vQv6NK-90WROetTzSbnZ-34" value="Yes" style="endArrow=classic;html=1;exitX=0;exitY=0.5;exitDx=0;exitDy=0;entryX=1;entryY=0;entryDx=0;entryDy=0;" parent="1" source="vQv6NK-90WROetTzSbnZ-23" target="vQv6NK-90WROetTzSbnZ-18" edge="1">
          <mxGeometry width="50" height="50" relative="1" as="geometry">
            <mxPoint x="310" y="190" as="sourcePoint" />
            <mxPoint x="335" y="250" as="targetPoint" />
          </mxGeometry>
        </mxCell>
        <mxCell id="vQv6NK-90WROetTzSbnZ-35" value="No" style="endArrow=classic;html=1;exitX=0;exitY=0.5;exitDx=0;exitDy=0;entryX=1;entryY=0.5;entryDx=0;entryDy=0;" parent="1" source="vQv6NK-90WROetTzSbnZ-22" target="vQv6NK-90WROetTzSbnZ-18" edge="1">
          <mxGeometry width="50" height="50" relative="1" as="geometry">
            <mxPoint x="390" y="200" as="sourcePoint" />
            <mxPoint x="333.8908729652603" y="246.10912703473969" as="targetPoint" />
          </mxGeometry>
        </mxCell>
        <mxCell id="vQv6NK-90WROetTzSbnZ-36" value="Yes" style="endArrow=classic;html=1;exitX=0;exitY=0.25;exitDx=0;exitDy=0;entryX=1;entryY=1;entryDx=0;entryDy=0;" parent="1" source="vQv6NK-90WROetTzSbnZ-17" target="vQv6NK-90WROetTzSbnZ-18" edge="1">
          <mxGeometry width="50" height="50" relative="1" as="geometry">
            <mxPoint x="420" y="260" as="sourcePoint" />
            <mxPoint x="350" y="285" as="targetPoint" />
          </mxGeometry>
        </mxCell>
        <mxCell id="vQv6NK-90WROetTzSbnZ-37" value="Yes" style="endArrow=classic;html=1;exitX=0.5;exitY=0;exitDx=0;exitDy=0;entryX=0.5;entryY=1;entryDx=0;entryDy=0;" parent="1" source="vQv6NK-90WROetTzSbnZ-19" target="vQv6NK-90WROetTzSbnZ-18" edge="1">
          <mxGeometry width="50" height="50" relative="1" as="geometry">
            <mxPoint x="420" y="355" as="sourcePoint" />
            <mxPoint x="333.8908729652603" y="323.8908729652603" as="targetPoint" />
          </mxGeometry>
        </mxCell>
        <mxCell id="vQv6NK-90WROetTzSbnZ-38" value="Yes" style="endArrow=classic;html=1;exitX=1;exitY=0;exitDx=0;exitDy=0;entryX=0;entryY=0.5;entryDx=0;entryDy=0;" parent="1" source="vQv6NK-90WROetTzSbnZ-20" target="vQv6NK-90WROetTzSbnZ-18" edge="1">
          <mxGeometry width="50" height="50" relative="1" as="geometry">
            <mxPoint x="295" y="390" as="sourcePoint" />
            <mxPoint x="295" y="340" as="targetPoint" />
          </mxGeometry>
        </mxCell>
        <mxCell id="vQv6NK-90WROetTzSbnZ-45" style="edgeStyle=orthogonalEdgeStyle;curved=0;rounded=1;sketch=0;orthogonalLoop=1;jettySize=auto;html=1;exitX=0.5;exitY=1;exitDx=0;exitDy=0;entryX=0.5;entryY=0;entryDx=0;entryDy=0;" parent="1" source="vQv6NK-90WROetTzSbnZ-39" target="vQv6NK-90WROetTzSbnZ-41" edge="1">
          <mxGeometry relative="1" as="geometry" />
        </mxCell>
        <mxCell id="vQv6NK-90WROetTzSbnZ-39" value="Support against C/IDS" style="shape=hexagon;perimeter=hexagonPerimeter2;whiteSpace=wrap;html=1;fixedSize=1;rounded=0;sketch=0;align=center;fillColor=#d5e8d4;strokeColor=#82b366;" parent="1" vertex="1">
          <mxGeometry x="580" y="170" width="140" height="60" as="geometry" />
        </mxCell>
        <mxCell id="vQv6NK-90WROetTzSbnZ-40" style="edgeStyle=orthogonalEdgeStyle;curved=0;rounded=1;sketch=0;orthogonalLoop=1;jettySize=auto;html=1;exitX=0.5;exitY=1;exitDx=0;exitDy=0;" parent="1" source="vQv6NK-90WROetTzSbnZ-39" target="vQv6NK-90WROetTzSbnZ-39" edge="1">
          <mxGeometry relative="1" as="geometry" />
        </mxCell>
        <mxCell id="vQv6NK-90WROetTzSbnZ-46" style="edgeStyle=orthogonalEdgeStyle;curved=0;rounded=1;sketch=0;orthogonalLoop=1;jettySize=auto;html=1;exitX=0.5;exitY=1;exitDx=0;exitDy=0;entryX=0.5;entryY=0;entryDx=0;entryDy=0;" parent="1" source="vQv6NK-90WROetTzSbnZ-41" target="vQv6NK-90WROetTzSbnZ-42" edge="1">
          <mxGeometry relative="1" as="geometry" />
        </mxCell>
        <mxCell id="vQv6NK-90WROetTzSbnZ-41" value="Value Internal Bosch Security, not just abuse it" style="shape=hexagon;perimeter=hexagonPerimeter2;whiteSpace=wrap;html=1;fixedSize=1;rounded=0;sketch=0;align=center;fillColor=#d5e8d4;strokeColor=#82b366;" parent="1" vertex="1">
          <mxGeometry x="590" y="300" width="160" height="60" as="geometry" />
        </mxCell>
        <mxCell id="vQv6NK-90WROetTzSbnZ-47" style="edgeStyle=orthogonalEdgeStyle;curved=0;rounded=1;sketch=0;orthogonalLoop=1;jettySize=auto;html=1;exitX=0.5;exitY=1;exitDx=0;exitDy=0;entryX=0.5;entryY=0;entryDx=0;entryDy=0;" parent="1" source="vQv6NK-90WROetTzSbnZ-42" target="vQv6NK-90WROetTzSbnZ-43" edge="1">
          <mxGeometry relative="1" as="geometry" />
        </mxCell>
        <mxCell id="vQv6NK-90WROetTzSbnZ-42" value="Staff it like we deserved it" style="shape=hexagon;perimeter=hexagonPerimeter2;whiteSpace=wrap;html=1;fixedSize=1;rounded=0;sketch=0;align=center;fillColor=#d5e8d4;strokeColor=#82b366;" parent="1" vertex="1">
          <mxGeometry x="590" y="400" width="160" height="60" as="geometry" />
        </mxCell>
        <mxCell id="vQv6NK-90WROetTzSbnZ-48" style="edgeStyle=orthogonalEdgeStyle;curved=0;rounded=1;sketch=0;orthogonalLoop=1;jettySize=auto;html=1;exitX=0.5;exitY=1;exitDx=0;exitDy=0;" parent="1" source="vQv6NK-90WROetTzSbnZ-43" target="vQv6NK-90WROetTzSbnZ-21" edge="1">
          <mxGeometry relative="1" as="geometry">
            <mxPoint x="685" y="441" as="sourcePoint" />
            <mxPoint x="644" y="466" as="targetPoint" />
          </mxGeometry>
        </mxCell>
        <mxCell id="vQv6NK-90WROetTzSbnZ-43" value="Send us back to CI if you cannot handle it" style="shape=hexagon;perimeter=hexagonPerimeter2;whiteSpace=wrap;html=1;fixedSize=1;rounded=0;sketch=0;align=center;fillColor=#d5e8d4;strokeColor=#82b366;" parent="1" vertex="1">
          <mxGeometry x="590" y="520" width="160" height="60" as="geometry" />
        </mxCell>
      </root>
    </mxGraphModel>
  </diagram>
</mxfile>
